<svg xmlns="http://www.w3.org/2000/svg" width="64.3" height="60" viewBox="0 0 64.3 60">
  <title>fullhd</title>
  <g id="keret">
    <path d="M61.1,8.9a3,3,0,0,1,3,3v48a3,3,0,0,1-3,3H8.9a3,3,0,0,1-3-3v-48a3,3,0,0,1,3-3H61.1m0-3H8.9a6,6,0,0,0-6,6v48a6,6,0,0,0,6,6H61.1a6,6,0,0,0,6-6v-48a6,6,0,0,0-6-6Z" transform="translate(-2.9 -5.9)" fill="#e23432"/>
    <path d="M61.1,65.9H8.9a6,6,0,0,1-6-6V31.7H67.1V59.9A6,6,0,0,1,61.1,65.9Z" transform="translate(-2.9 -5.9)" fill="#e23432"/>
  </g>
  <g id="szoveg">
    <g>
      <polygon points="17.4 8.3 9.4 8.3 9.4 13.7 16.5 13.7 16.5 15.3 9.4 15.3 9.4 21.9 7.6 21.9 7.6 6.6 17.4 6.6 17.4 8.3 17.4 8.3" fill="#e23432"/>
      <path d="M35.4,21.5c0,4-2.4,6.4-6.4,6.4s-6.5-2.4-6.5-6.4v-9h1.8v9A4.3,4.3,0,0,0,29,26.2c2.9,0,4.7-1.7,4.7-4.7v-9h1.8v9Z" transform="translate(-2.9 -5.9)" fill="#e23432"/>
      <polygon points="45.3 21.9 36.8 21.9 36.8 6.6 38.6 6.6 38.6 20.3 45.3 20.3 45.3 21.9" fill="#e23432"/>
      <polygon points="56.6 21.9 48.1 21.9 48.1 6.6 49.9 6.6 49.9 20.3 56.6 20.3 56.6 21.9" fill="#e23432"/>
    </g>
    <g id="hd">
      <polygon points="29.6 55.1 23.4 55.1 23.4 45.6 13.3 45.6 13.3 55.1 7.1 55.1 7.1 30.7 13.3 30.7 13.3 40.8 23.4 40.8 23.4 30.7 29.6 30.7 29.6 55.1" fill="#fff"/>
      <path d="M47.6,61H37.4V46.9h6.2V56H48c3.8,0,6.5-2.9,6.5-7.2s-2.9-7.3-6.8-7.3H37.4V36.6H47.8c7.7,0,13,4.9,13,12.2S55.4,61,47.6,61Z" transform="translate(-2.9 -5.9)" fill="#fff"/>
    </g>
  </g>
</svg>
