<svg xmlns="http://www.w3.org/2000/svg" width="69.3" height="49.9" viewBox="0 0 69.3 49.9">
  <title>uj</title>
  <g id="babzsak">
    <path d="M57.2,53.5a11,11,0,0,1-2.4,1.1,16.6,16.6,0,0,1-9.2,0,10.4,10.4,0,0,1-3.8-2.1l-1-1-.3.4a12.9,12.9,0,0,1-1.6,1.7H39l.6.2h.6l.6.3,1,.8a4.1,4.1,0,0,1,1.1,2.2h-.1a4.1,4.1,0,0,0-1.4-1.8,4.4,4.4,0,0,0-2-.8,11.4,11.4,0,0,0-2,0h-.2l-.5.3-.5.2-.5.2-.5.2-2.2.3H30.9l-2.1-.2a25.9,25.9,0,0,1-4.1-.9,18.6,18.6,0,0,1-2.9-1.2l-.4.2-.6.4-.6.5a6.2,6.2,0,0,0-.9,1.5,10.2,10.2,0,0,0-.6,1.8h-.1a8.5,8.5,0,0,1,.2-1.9,5.8,5.8,0,0,1,.7-1.9l.7-.9.5-.4-1-.7H18.5l-.7.3a5.3,5.3,0,0,0-1.2,1,8.1,8.1,0,0,0-1,1.4h-.1a6.8,6.8,0,0,1,.6-1.7A5,5,0,0,1,17.2,52l.8-.6h.4l-.8-1a8.7,8.7,0,0,1-1.5-4.1c0-.4-.1-.7-.1-1.1s0-.7,0-1.1v-4c0-.3.1-.7.1-1v-1a16.1,16.1,0,0,0-.2-2.9l-.6-.7a2.7,2.7,0,0,0-1.7-.6,5.2,5.2,0,0,0-1.8.3l-1.7.8h0l1.7-1a5.4,5.4,0,0,1,1.9-.4,2.6,2.6,0,0,1,1.9.6l.2.2v-.3a5.6,5.6,0,0,0-.8-1.7,2.6,2.6,0,0,0-1.6-1,2.7,2.7,0,0,1,1.8.9A6,6,0,0,1,16.8,34a13.5,13.5,0,0,1,.9,4v1c0,.3,0,.7,0,1v4c0,.3,0,.6,0,.9s.1.6.1.9a7.6,7.6,0,0,0,1.4,3.3,8.9,8.9,0,0,0,2.8,2.4,19.4,19.4,0,0,0,7.3,2.2c2.6.3,5.2.5,7.3-.7a9.5,9.5,0,0,0,2.8-2.4l.6-.8-.5-1a15.2,15.2,0,0,1-1.1-3.8,28.5,28.5,0,0,1-.3-4.1V21.7a4,4,0,0,1,4-4H45l.4-1.3a21.1,21.1,0,0,0-10.7-3,30.8,30.8,0,0,0-20.6,8c4.9,0,4.8,3,4.8,3C6.6,16.9.8,44.8.8,44.8-1.5,63.3,9.4,61.6,11.7,61.7s30.7.5,36.2-.3,7.1-1.9,9.3-7.9Z" transform="translate(-0.5 -12.1)" fill="#e23432"/>
  </g>
  <g id="uj">
    <path d="M50.2,51.2a11.2,11.2,0,0,1-3.4-.5,6.4,6.4,0,0,1-2.4-1.3,5.9,5.9,0,0,1-1.5-2.1,11.2,11.2,0,0,1-.8-2.8,24.4,24.4,0,0,1-.2-3.5V21.7h5.2V41.6q0,1,.1,1.7a10.5,10.5,0,0,0,.2,1.5,3.6,3.6,0,0,0,.5,1.3,2.6,2.6,0,0,0,.9.8,3.2,3.2,0,0,0,2.8,0,2.4,2.4,0,0,0,.9-.8,4,4,0,0,0,.5-1.3,9.1,9.1,0,0,0,.2-1.5q0-.7,0-1.7V21.7h5.2V41.1a24.4,24.4,0,0,1-.2,3.5,11.2,11.2,0,0,1-.8,2.8,6,6,0,0,1-1.5,2.1,6.3,6.3,0,0,1-2.3,1.3A11.1,11.1,0,0,1,50.2,51.2Z" transform="translate(-0.5 -12.1)" fill="#e23432"/>
    <polygon points="48.3 7.2 50.4 0 55.4 0 51 7.2 48.3 7.2" fill="#e23432"/>
    <path d="M60.6,51.5V47.8a4.7,4.7,0,0,0,3.1-.7q.8-.7.8-3V21.7h5.3V44.2a15,15,0,0,1-.3,3.2,5.6,5.6,0,0,1-1.1,2.3,4.2,4.2,0,0,1-2,1.4,10.3,10.3,0,0,1-3.2.4Z" transform="translate(-0.5 -12.1)" fill="#e23432"/>
  </g>
</svg>
